<svg width="80" height="80" viewBox="0 0 80 80" fill="none" xmlns="http://www.w3.org/2000/svg">
<g filter="url(#filter0_d_89_139)">
<rect x="7" y="3" width="72" height="72" rx="36" fill="#8B5CF6" shape-rendering="crispEdges"/>
<path d="M26.6364 19C24.6273 19 23 20.6273 23 22.6364V55.3636C23 57.3727 24.6273 59 26.6364 59H59.3636C61.3727 59 63 57.3727 63 55.3636V22.6364C63 20.6273 61.3727 19 59.3636 19H26.6364ZM51.473 28.5419C52.6039 28.5419 53.3764 29.2628 53.3764 30.2464C53.3764 31.2301 52.6039 31.951 51.473 31.951C50.3548 31.951 49.5732 31.2301 49.5732 30.2464C49.5732 29.2628 50.3548 28.5419 51.473 28.5419ZM37.169 29.8239H40.7734L47.1477 47.7607H43.7067L42.1903 43.1761H35.5923L34.0476 47.7607H30.8054L37.169 29.8239ZM38.7955 33.2401L36.3381 40.6371H41.4446L39.0085 33.2401H38.7955ZM49.946 34.1634H53.0142V47.7607H49.946V34.1634Z" fill="#D4CAF9"/>
</g>
<defs>
<filter id="filter0_d_89_139" x="0" y="0" width="80" height="80" filterUnits="userSpaceOnUse" color-interpolation-filters="sRGB">
<feFlood flood-opacity="0" result="BackgroundImageFix"/>
<feColorMatrix in="SourceAlpha" type="matrix" values="0 0 0 0 0 0 0 0 0 0 0 0 0 0 0 0 0 0 127 0" result="hardAlpha"/>
<feOffset dx="-3" dy="1"/>
<feGaussianBlur stdDeviation="2"/>
<feComposite in2="hardAlpha" operator="out"/>
<feColorMatrix type="matrix" values="0 0 0 0 0 0 0 0 0 0 0 0 0 0 0 0 0 0 0.07 0"/>
<feBlend mode="normal" in2="BackgroundImageFix" result="effect1_dropShadow_89_139"/>
<feBlend mode="normal" in="SourceGraphic" in2="effect1_dropShadow_89_139" result="shape"/>
</filter>
</defs>
</svg>
