<svg width="55" height="36" viewBox="0 0 55 36" fill="none" xmlns="http://www.w3.org/2000/svg">
<path d="M21.004 16.0945C21.004 16.0945 26.3981 15.6951 26.3981 9.38711C26.3981 3.07865 21.985 0 16.3949 0H-2V35.2526H16.3949C16.3949 35.2526 27.6243 35.6063 27.6243 24.8476C27.6243 24.8478 28.1139 16.0945 21.004 16.0945ZM15.0709 6.26575H16.3949C16.3949 6.26575 18.8953 6.26575 18.8953 9.93363C18.8953 13.6011 17.4248 14.1328 15.7569 14.1328H6.10503V6.26575H15.0709ZM15.8751 28.9871H6.10503V19.5662H16.3949C16.3949 19.5662 20.1217 19.5175 20.1217 24.4076C20.1217 28.531 17.3381 28.9559 15.8751 28.9871ZM42.6007 8.9693C29.0063 8.9693 29.0183 22.5144 29.0183 22.5144C29.0183 22.5144 28.0856 35.99 42.6007 35.99C42.6007 35.99 54.6965 36.6791 54.6965 26.6158H48.4758C48.4758 26.6158 48.6833 30.4055 42.8082 30.4055C42.8082 30.4055 36.5865 30.8213 36.5865 24.2723H54.904C54.904 24.2722 56.9083 8.9693 42.6007 8.9693ZM36.5181 19.5662C36.5181 19.5662 37.2777 14.1327 42.7389 14.1327C48.199 14.1327 48.1306 19.5662 48.1306 19.5662H36.5181ZM49.5797 6.41793H34.9952V2.07683H49.5797V6.41793Z" fill="#A78BFA"/>
</svg>
