<svg width="112" height="64" viewBox="0 0 112 64" fill="none" xmlns="http://www.w3.org/2000/svg">
<rect width="112" height="64" rx="32" fill="#3F3F46"/>
<path d="M15.6364 12C13.6273 12 12 13.6273 12 15.6364V48.3636C12 50.3727 13.6273 52 15.6364 52H48.3636C50.3727 52 52 50.3727 52 48.3636V15.6364C52 13.6273 50.3727 12 48.3636 12H15.6364ZM40.473 21.5419C41.6039 21.5419 42.3764 22.2628 42.3764 23.2464C42.3764 24.2301 41.6039 24.951 40.473 24.951C39.3548 24.951 38.5732 24.2301 38.5732 23.2464C38.5732 22.2628 39.3548 21.5419 40.473 21.5419ZM26.169 22.8239H29.7734L36.1477 40.7607H32.7067L31.1903 36.1761H24.5923L23.0476 40.7607H19.8054L26.169 22.8239ZM27.7955 26.2401L25.3381 33.6371H30.4446L28.0085 26.2401H27.7955ZM38.946 27.1634H42.0142V40.7607H38.946V27.1634Z" fill="#D4CAF9"/>
<path d="M63.6364 12C61.6273 12 60 13.6273 60 15.6364V48.3636C60 50.3727 61.6273 52 63.6364 52H96.3636C98.3727 52 100 50.3727 100 48.3636V15.6364C100 13.6273 98.3727 12 96.3636 12H63.6364ZM67.2727 22.8949H74.5064C78.0864 22.8949 80.5362 25.3439 80.5362 28.9602C80.5362 32.5148 77.997 34.951 74.3679 34.951H70.4794V40.8317H67.2727V22.8949ZM70.4794 25.5795V32.2912H73.6506C75.9378 32.2912 77.2798 31.0984 77.2798 28.9602C77.2798 26.762 75.9721 25.5795 73.6612 25.5795H70.4794ZM87.6491 26.9574C90.8801 26.9574 92.9085 28.3874 93.1321 30.8601H90.2379C90.0143 29.9037 89.1052 29.294 87.6634 29.294C86.2597 29.294 85.2024 29.967 85.2024 30.9489C85.2024 31.7198 85.8486 32.1916 87.2159 32.5007L89.6129 33.0476C92.2111 33.6312 93.4162 34.7514 93.4162 36.7514C93.4162 39.3641 91.017 41.1051 87.6243 41.1051C84.2316 41.1051 82.0936 39.6361 81.8572 37.1634H84.9041C85.2023 38.1706 86.157 38.7685 87.6989 38.7685C89.2516 38.7685 90.3338 38.0854 90.3338 37.0781C90.3338 36.3072 89.7515 35.8207 88.4588 35.5334L86.0476 34.9759C83.4367 34.3795 82.2088 33.1738 82.2088 31.1229C82.2088 28.6611 84.4419 26.9574 87.6491 26.9574Z" fill="#D4CAF9"/>
</svg>
