<svg width="115" height="72" viewBox="0 0 115 72" fill="none" xmlns="http://www.w3.org/2000/svg">
<rect y="0.549805" width="114.9" height="70.9004" rx="35.4502" fill="#3F3F46"/>
<path d="M18.8104 20.7702L18.9004 20.8602V46.7502L13.8104 41.6602C12.0004 39.8502 11.4904 37.0702 12.5404 34.7402L18.8104 20.7702ZM46.2004 19.4502H20.3104L20.2204 19.3602L34.1904 13.0902C36.5204 12.0402 39.3004 12.5502 41.1104 14.3602L46.2004 19.4502ZM48.4904 50.4502H22.6104L22.0704 49.9102C21.3204 49.1502 20.9004 48.1502 20.9004 47.0802V22.8602L48.4904 50.4502ZM24.6104 52.4502H49.9004V58.4502C49.9004 59.0002 49.4504 59.4502 48.9004 59.4502H32.0004C31.7304 59.4502 31.4804 59.3402 31.2904 59.1602L26.5904 54.4602L26.6104 54.4402L24.6104 52.4502ZM58.9004 32.5502V49.4502C58.9004 50.0002 58.4504 50.4502 57.9004 50.4502H51.3204L22.3104 21.4502H46.5304C47.6004 21.4502 48.6004 21.8702 49.3604 22.6202L53.8904 27.1602L53.9104 27.1402L58.6104 31.8402C58.7904 32.0302 58.9004 32.2802 58.9004 32.5502Z" fill="#D4CAF9"/>
<path d="M102.9 34.3035L90.9004 46.1517L102.9 58H89.1879L77.1837 46.1517L89.1879 34.3035H102.9ZM89.1879 14L66.9004 35.9979L73.7588 42.7671L102.9 14H89.1879Z" fill="#D4CAF9"/>
</svg>
