<svg width="62" height="62" viewBox="0 0 62 62" fill="none" xmlns="http://www.w3.org/2000/svg">
<rect width="62" height="62" rx="31" fill="#3F3F46"/>
<path d="M15.4545 12C13.5459 12 12 13.5459 12 15.4545V46.5455C12 48.4541 13.5459 50 15.4545 50H46.5455C48.4541 50 50 48.4541 50 46.5455V15.4545C50 13.5459 48.4541 12 46.5455 12H15.4545ZM23.0788 22.5829H26.503L32.5586 39.6229H29.2896L27.8491 35.2642H21.5776L20.1135 39.6229H17.0334L23.0788 22.5829ZM24.6239 25.8317L22.286 32.8555H27.1406L24.8263 25.8317H24.6239ZM39.9029 26.4457C43.5871 26.4457 45.7965 28.8888 45.7965 32.9634V33.908H36.7756V34.0598C36.8464 36.2086 38.0849 37.5549 40.0108 37.5549C41.4617 37.5549 42.467 37.024 42.8919 36.0671H45.665C45.1122 38.4179 42.9717 39.8826 39.9265 39.8826C36.1248 39.8826 33.8338 37.3655 33.8338 33.2097C33.8338 29.0539 36.1616 26.4457 39.9029 26.4457ZM39.8928 28.7667C38.1448 28.7667 36.917 30.0196 36.7857 31.9075H42.8683C42.8078 29.9954 41.6494 28.7667 39.8928 28.7667Z" fill="#D4CAF9"/>
</svg>
