<svg width="134" height="58" viewBox="0 0 134 58" fill="none" xmlns="http://www.w3.org/2000/svg">
<rect width="134" height="58" rx="29" fill="#3F3F46"/>
<path d="M27 39.5026L34.7 37.3674L35.7383 25.8448H22.0433L21.7033 22.013H36.08L36.4583 18.2543H17.5417L18.6017 29.6069H31.635L31.2 34.4791L27 35.613L22.8 34.4791L22.5367 31.3443H18.7533L19.3017 37.3691L27 39.5026ZM12 12H42L39.295 42.6L27 46L14.705 42.6L12 12Z" fill="#D4CAF9"/>
<path d="M50 12L52.7304 42.5909L64.9818 46L77.2675 42.5784L80 12H50ZM74.3278 19.0085L73.4189 29.1993L73.4216 29.2543L73.4178 29.3809V29.3798L72.7721 36.5054L72.7009 37.1384L65 39.2641L64.994 39.2695L57.3064 37.1319L56.7858 31.2407H60.5557L60.8231 34.2363L65.0011 35.3664L65 35.3685V35.368L69.1934 34.222L69.6366 29.3438H60.8704L60.7952 28.5191L60.6238 26.5872L60.5339 25.5498H69.9698L70.313 21.7559H55.9413L55.8661 20.9318L55.6951 18.9993L55.6049 17.9619H74.4176L74.3278 19.0085Z" fill="#D4CAF9"/>
<path d="M118.909 12H91.0909C89.3832 12 88 13.3832 88 15.0909V42.9091C88 44.6168 89.3832 46 91.0909 46H118.909C120.617 46 122 44.6168 122 42.9091V15.0909C122 13.3832 120.617 12 118.909 12ZM105 37.3145C105 40.0608 103.315 41.6001 100.518 41.6001C98.324 41.6001 96.7622 40.5818 96.212 38.8547C95.9601 38.064 96.6674 37.3733 97.4974 37.3733C98.3226 37.3733 98.9076 38.1975 99.5737 38.6848C99.8121 38.8592 100.115 38.9543 100.467 38.9543C101.385 38.9543 101.878 38.3763 101.878 37.2883V30.5578C101.878 29.6958 102.577 28.9969 103.439 28.9969C104.301 28.9969 105 29.6958 105 30.5578V37.3145ZM113.471 41.6001C111.099 41.6001 109.4 40.7473 108.706 39.291C108.335 38.5146 109.067 37.7735 109.928 37.7735C110.724 37.7735 111.405 38.4957 112.096 38.8916C112.482 39.1127 112.996 39.2355 113.597 39.2355C114.763 39.2355 115.563 38.6745 115.563 37.8663C115.563 37.1863 115.027 36.82 113.624 36.5403L112.009 36.2173C109.763 35.7923 108.607 34.5683 108.607 32.638C108.607 30.2395 110.53 28.6662 113.488 28.6662C115.69 28.6662 117.373 29.5801 118.062 31.0289C118.419 31.7789 117.719 32.4927 116.888 32.4927C116.116 32.4927 115.471 31.7927 114.824 31.3719C114.481 31.1493 114.033 31.0215 113.528 31.0215C112.432 31.0215 111.71 31.5407 111.71 32.3567C111.71 33.029 112.254 33.42 113.546 33.675L115.126 33.981C117.551 34.4493 118.639 35.545 118.639 37.4923C118.64 40.0531 116.685 41.6001 113.471 41.6001Z" fill="#D4CAF9"/>
</svg>
