<svg width="42" height="47" viewBox="0 0 42 47" fill="none" xmlns="http://www.w3.org/2000/svg">
<path d="M7.72936 38.5241C7.02943 38.0555 6.42703 37.4603 5.72244 36.6189C5.46771 36.3146 4.43661 35.0217 4.63559 35.2688C3.55577 33.9274 2.87358 33.306 2.17031 33.0538C0.957304 32.6189 0.326604 31.2828 0.761631 30.0697C1.19666 28.8568 2.53265 28.2261 3.74568 28.6611C5.50184 29.2908 6.68977 30.3756 8.28992 32.3664C8.07059 32.0936 9.08183 33.362 9.30039 33.6229C9.74496 34.154 10.0704 34.4755 10.3247 34.6456C10.8028 34.9655 11.6972 35.1034 13.0099 34.972C13.0649 34.0805 13.2298 33.2155 13.4814 32.4163C6.5556 30.7237 2.63604 26.2549 2.63604 17.4923C2.63604 14.6016 3.4976 11.9954 5.10473 9.81113C4.59684 7.72541 4.67344 5.20287 5.80882 2.36442C6.06917 1.71351 6.60843 1.21415 7.27739 1.00448C7.46898 0.94897 7.57513 0.92426 7.76382 0.89528C9.63723 0.607604 12.2834 1.29272 15.7338 3.45408C17.7557 2.97678 19.8732 2.7346 22.0028 2.7346C24.1301 2.7346 26.2457 2.97631 28.2659 3.45273C31.7111 1.27627 34.3634 0.59141 36.2501 0.89479C36.4478 0.926547 36.6172 0.967847 36.7581 1.01412C37.4138 1.22939 37.9404 1.72378 38.1966 2.36442C39.3318 5.20224 39.4085 7.72427 38.901 9.80971C40.5131 11.9941 41.3695 14.5811 41.3695 17.4923C41.3695 26.2589 37.463 30.7109 30.5372 32.4077C30.8286 33.3758 30.9824 34.4575 30.9824 35.6277C30.9824 37.1782 30.9766 38.6587 30.9656 40.3189C30.9628 40.7624 30.9593 41.2366 30.9542 41.9653C31.8301 42.1585 32.5534 42.8508 32.7406 43.7869C32.9933 45.0506 32.1738 46.2798 30.9101 46.5325C28.2519 47.0643 26.2824 45.2917 26.2824 42.9754C26.2824 42.7647 26.284 42.4634 26.2875 41.9333C26.2929 41.203 26.2961 40.7305 26.2992 40.2883C26.3099 38.6375 26.3157 37.1668 26.3157 35.6277C26.3157 34.0007 25.8883 32.9402 25.322 32.452C23.7796 31.1225 24.5613 28.5934 26.585 28.3659C33.5066 27.5882 36.7028 24.9074 36.7028 17.4923C36.7028 15.2648 35.975 13.4229 34.5722 11.8826C33.9702 11.2217 33.799 10.275 34.131 9.44494C34.5176 8.4784 34.6826 7.21189 34.3529 5.67931L34.331 5.68552C33.1832 6.01025 31.7403 6.71247 29.9942 7.89943C29.4247 8.28646 28.7135 8.40229 28.0508 8.21588C26.1368 7.6776 24.0797 7.40127 22.0028 7.40127C19.9257 7.40127 17.8686 7.6776 15.9547 8.21588C15.2955 8.40131 14.588 8.28775 14.0199 7.90529C12.2639 6.72315 10.8131 6.02178 9.65851 5.69504C9.32382 7.21917 9.489 8.48118 9.87451 9.44494C10.2065 10.275 10.0351 11.2217 9.43321 11.8826C8.04002 13.4124 7.30271 15.285 7.30271 17.4923C7.30271 24.8934 10.5019 27.5924 17.387 28.3659C19.406 28.5929 20.1907 31.1125 18.6575 32.4455C18.2086 32.8359 17.6563 34.1533 17.6563 35.6277V42.9754C17.6563 45.277 15.7083 47.0022 13.0838 46.543C11.8144 46.3209 10.9655 45.1118 11.1876 43.8424C11.356 42.8804 12.0911 42.1601 12.9896 41.9641V39.6553C10.866 39.7981 9.11198 39.4492 7.72936 38.5241Z" fill="#A78BFA"/>
</svg>
