<svg width="79" height="78" viewBox="0 0 79 78" fill="none" xmlns="http://www.w3.org/2000/svg">
<path d="M56.5 77.5C62.3333 77.5 67.2917 75.4583 71.375 71.375C75.4583 67.2917 77.5 62.3333 77.5 56.5H72.25C72.25 60.875 70.7182 64.5943 67.6545 67.658C64.5908 70.7217 60.8727 72.2523 56.5 72.25V77.5ZM0.5 21.5H5.75C5.75 17.125 7.28183 13.4057 10.3455 10.342C13.4092 7.27833 17.1273 5.74767 21.5 5.75V0.5C15.6667 0.5 10.7083 2.54167 6.625 6.625C2.54167 10.7083 0.5 15.6667 0.5 21.5ZM9.3375 68.6625C3.50417 62.8292 0.5875 55.8292 0.5875 47.6625C0.5875 39.4958 3.50417 32.4958 9.3375 26.6625L27.8 8.2L35.2375 15.6375L50.025 0.85L57.4625 8.2875L62.5375 3.2125L74.4375 15.1125L70.675 18.875L78.55 26.75L71.2 34.1L78.55 41.45L51.3375 68.6625C45.4458 74.5542 38.4318 77.4848 30.2955 77.4545C22.1592 77.4242 15.1732 74.4935 9.3375 68.6625ZM14.2375 63.7625C16.4542 65.9792 18.9625 67.6417 21.7625 68.75C24.5625 69.8583 27.4208 70.4125 30.3375 70.4125C33.2542 70.4125 36.1125 69.8583 38.9125 68.75C41.7125 67.6417 44.2208 65.9792 46.4375 63.7625L68.6625 41.5375L66.2125 39.0875L52.5625 52.7375L47.575 47.75L68.575 26.75L66.125 24.3L47.6625 42.7625L42.675 37.775L64.9 15.55L62.45 13.1L40.225 35.325L35.2375 30.3375L52.475 13.1L50.025 10.65L26.8375 33.8375C28.0625 36.9875 28.3542 40.2693 27.7125 43.683C27.0708 47.0967 25.4667 50.0857 22.9 52.65L18 47.6625C20.0417 45.6208 21.0625 43.1417 21.0625 40.225C21.0625 37.3083 20.0417 34.8292 18 32.7875L30.25 20.5375L27.8 18.0875L14.325 31.5625C12.1083 33.7792 10.4318 36.2875 9.2955 39.0875C8.15917 41.8875 7.58983 44.7458 7.5875 47.6625C7.5875 50.5792 8.14167 53.4375 9.25 56.2375C10.3583 59.0375 12.0208 61.5458 14.2375 63.7625Z" fill="#A1A1AA"/>
</svg>
