<svg width="48" height="48" viewBox="0 0 48 48" fill="none" xmlns="http://www.w3.org/2000/svg">
<path d="M24.0023 16.9998C20.1351 16.9998 17.0023 20.1337 17.0023 23.9998C17.0023 27.8669 20.1362 30.9998 24.0023 30.9998C27.8694 30.9998 31.0023 27.8659 31.0023 23.9998C31.0023 20.1328 27.8684 16.9998 24.0023 16.9998ZM24.0023 12.3332C30.4433 12.3332 35.669 17.5531 35.669 23.9998C35.669 30.441 30.4491 35.6665 24.0023 35.6665C17.5612 35.6665 12.3356 30.4466 12.3356 23.9998C12.3356 17.5587 17.5555 12.3332 24.0023 12.3332ZM39.169 11.7479C39.169 13.3581 37.8605 14.6646 36.2523 14.6646C34.6421 14.6646 33.3357 13.3561 33.3357 11.7479C33.3357 10.1396 34.644 8.83317 36.2523 8.83317C37.8584 8.83114 39.169 10.1396 39.169 11.7479ZM24.0023 5.33317C18.2285 5.33317 17.2874 5.34845 14.602 5.46804C12.7723 5.55393 11.5459 5.8 10.4064 6.2424C9.3937 6.63515 8.6632 7.10412 7.88487 7.88245C7.10356 8.66377 6.63542 9.39231 6.24426 10.4054C5.80083 11.5476 5.55483 12.7721 5.47048 14.5992C5.34973 17.1753 5.33561 18.0756 5.33561 23.9998C5.33561 29.7737 5.3509 30.7147 5.47046 33.3999C5.55639 35.2288 5.80279 36.457 6.24412 37.5938C6.63789 38.6079 7.10783 39.3401 7.8824 40.1148C8.6668 40.8981 9.3975 41.3678 10.401 41.7551C11.5544 42.201 12.7801 42.4474 14.6016 42.5316C17.1777 42.6523 18.0781 42.6665 24.0023 42.6665C29.7762 42.6665 30.7172 42.6511 33.4024 42.5316C35.2273 42.446 36.4565 42.1989 37.5963 41.7579C38.6076 41.3652 39.3421 40.8936 40.1173 40.1197C40.9017 39.334 41.3705 38.6051 41.7583 37.5992C42.203 36.45 42.4499 35.2227 42.5341 33.4006C42.6548 30.8244 42.669 29.9239 42.669 23.9998C42.669 18.2261 42.6536 17.285 42.5341 14.5997C42.4483 12.7743 42.2012 11.5433 41.7597 10.4039C41.3679 9.39406 40.8973 8.66132 40.1196 7.88245C39.337 7.09985 38.6104 6.63267 37.5966 6.24182C36.4553 5.79876 35.2289 5.55241 33.4029 5.46806C30.8269 5.34729 29.9264 5.33317 24.0023 5.33317ZM24.0023 0.666504C30.3411 0.666504 31.1325 0.689837 33.6215 0.806504C36.1044 0.921234 37.7982 1.314 39.2857 1.8915C40.8236 2.48457 42.1225 3.28567 43.4194 4.58261C44.7144 5.87957 45.5157 7.18234 46.1107 8.7165C46.6861 10.2021 47.079 11.8976 47.1957 14.3807C47.3065 16.8696 47.3357 17.6609 47.3357 23.9998C47.3357 30.3388 47.3123 31.13 47.1957 33.619C47.0809 36.1021 46.6861 37.7957 46.1107 39.2832C45.5175 40.8213 44.7144 42.12 43.4194 43.4171C42.1225 44.7121 40.8177 45.5132 39.2857 46.1082C37.7982 46.6838 36.1044 47.0765 33.6215 47.1932C31.1325 47.304 30.3411 47.3332 24.0023 47.3332C17.6634 47.3332 16.872 47.3098 14.3831 47.1932C11.9 47.0784 10.2084 46.6838 8.71895 46.1082C7.18282 45.515 5.88199 44.7121 4.58505 43.4171C3.28811 42.12 2.48895 40.8155 1.89395 39.2832C1.31645 37.7957 0.925612 36.1021 0.808946 33.619C0.698112 31.13 0.668945 30.3388 0.668945 23.9998C0.668945 17.6609 0.692279 16.8696 0.808946 14.3807C0.923652 11.8957 1.31645 10.204 1.89395 8.7165C2.48699 7.1804 3.28811 5.87957 4.58505 4.58261C5.88199 3.28567 7.18478 2.4865 8.71895 1.8915C10.2064 1.314 11.8981 0.92317 14.3831 0.806504C16.872 0.69567 17.6634 0.666504 24.0023 0.666504Z" fill="#27272A"/>
</svg>
