<svg width="70" height="70" viewBox="0 0 70 70" fill="none" xmlns="http://www.w3.org/2000/svg">
<path d="M50.26 42C50.54 39.69 50.75 37.38 50.75 35C50.75 32.62 50.54 30.31 50.26 28H62.09C62.65 30.24 63 32.585 63 35C63 37.415 62.65 39.76 62.09 42M44.065 61.46C46.165 57.575 47.775 53.375 48.895 49H59.22C55.8291 54.839 50.4494 59.262 44.065 61.46ZM43.19 42H26.81C26.46 39.69 26.25 37.38 26.25 35C26.25 32.62 26.46 30.275 26.81 28H43.19C43.505 30.275 43.75 32.62 43.75 35C43.75 37.38 43.505 39.69 43.19 42ZM35 62.86C32.095 58.66 29.75 54.005 28.315 49H41.685C40.25 54.005 37.905 58.66 35 62.86ZM21 21H10.78C14.136 15.1453 19.5118 10.7152 25.9 8.54C23.8 12.425 22.225 16.625 21 21ZM10.78 49H21C22.225 53.375 23.8 57.575 25.9 61.46C19.5252 59.2608 14.157 54.837 10.78 49ZM7.91 42C7.35 39.76 7 37.415 7 35C7 32.585 7.35 30.24 7.91 28H19.74C19.46 30.31 19.25 32.62 19.25 35C19.25 37.38 19.46 39.69 19.74 42M35 7.105C37.905 11.305 40.25 15.995 41.685 21H28.315C29.75 15.995 32.095 11.305 35 7.105ZM59.22 21H48.895C47.7996 16.6651 46.1775 12.4806 44.065 8.54C50.505 10.745 55.86 15.19 59.22 21ZM35 0C15.645 0 0 15.75 0 35C0 44.2826 3.68749 53.185 10.2513 59.7487C13.5013 62.9988 17.3597 65.5769 21.6061 67.3358C25.8525 69.0947 30.4037 70 35 70C44.2826 70 53.185 66.3125 59.7487 59.7487C66.3125 53.185 70 44.2826 70 35C70 30.4037 69.0947 25.8525 67.3358 21.6061C65.5769 17.3597 62.9988 13.5013 59.7487 10.2513C56.4987 7.00121 52.6403 4.42313 48.3939 2.66422C44.1475 0.905302 39.5963 0 35 0Z" fill="white"/>
</svg>
