<svg width="80" height="80" viewBox="0 0 80 80" fill="none" xmlns="http://www.w3.org/2000/svg">
<g filter="url(#filter0_d_89_132)">
<rect x="7" y="3" width="72" height="72" rx="36" fill="#8B5CF6" shape-rendering="crispEdges"/>
<g clip-path="url(#clip0_89_132)">
<path d="M56.9091 22H29.0909C27.3832 22 26 23.3832 26 25.0909V52.9091C26 54.6168 27.3832 56 29.0909 56H56.9091C58.6168 56 60 54.6168 60 52.9091V25.0909C60 23.3832 58.6168 22 56.9091 22ZM43 47.3145C43 50.0608 41.3155 51.6001 38.5182 51.6001C36.324 51.6001 34.7622 50.5818 34.212 48.8547C33.9601 48.064 34.6674 47.3733 35.4974 47.3733C36.3226 47.3733 36.9076 48.1975 37.5737 48.6848C37.8121 48.8592 38.1152 48.9543 38.4672 48.9543C39.3852 48.9543 39.8782 48.3763 39.8782 47.2883V40.5578C39.8782 39.6958 40.577 38.9969 41.4391 38.9969C42.3012 38.9969 43 39.6958 43 40.5578V47.3145ZM51.4706 51.6001C49.0994 51.6001 47.3997 50.7473 46.7055 49.291C46.3354 48.5146 47.0674 47.7735 47.9276 47.7735C48.7242 47.7735 49.4047 48.4957 50.096 48.8916C50.482 49.1127 50.9963 49.2355 51.5974 49.2355C52.7626 49.2355 53.5632 48.6745 53.5632 47.8663C53.5632 47.1863 53.0269 46.82 51.6236 46.5403L50.0086 46.2173C47.7631 45.7923 46.6071 44.5683 46.6071 42.638C46.6071 40.2395 48.5296 38.6662 51.4876 38.6662C53.6905 38.6662 55.3733 39.5801 56.0624 41.0289C56.4191 41.7789 55.7189 42.4927 54.8885 42.4927C54.1159 42.4927 53.4715 41.7927 52.8236 41.3719C52.481 41.1493 52.0333 41.0215 51.5278 41.0215C50.4321 41.0215 49.7104 41.5407 49.7104 42.3567C49.7104 43.029 50.2544 43.42 51.5464 43.675L53.1258 43.981C55.5506 44.4493 56.6386 45.545 56.6386 47.4923C56.6402 50.0531 54.6852 51.6001 51.4706 51.6001Z" fill="#D4CAF9"/>
</g>
</g>
<defs>
<filter id="filter0_d_89_132" x="0" y="0" width="80" height="80" filterUnits="userSpaceOnUse" color-interpolation-filters="sRGB">
<feFlood flood-opacity="0" result="BackgroundImageFix"/>
<feColorMatrix in="SourceAlpha" type="matrix" values="0 0 0 0 0 0 0 0 0 0 0 0 0 0 0 0 0 0 127 0" result="hardAlpha"/>
<feOffset dx="-3" dy="1"/>
<feGaussianBlur stdDeviation="2"/>
<feComposite in2="hardAlpha" operator="out"/>
<feColorMatrix type="matrix" values="0 0 0 0 0 0 0 0 0 0 0 0 0 0 0 0 0 0 0.07 0"/>
<feBlend mode="normal" in2="BackgroundImageFix" result="effect1_dropShadow_89_132"/>
<feBlend mode="normal" in="SourceGraphic" in2="effect1_dropShadow_89_132" result="shape"/>
</filter>
<clipPath id="clip0_89_132">
<rect width="48" height="48" fill="white" transform="translate(19 15)"/>
</clipPath>
</defs>
</svg>
