<svg width="42" height="42" viewBox="0 0 42 42" fill="none" xmlns="http://www.w3.org/2000/svg">
<path d="M2.33559 0H39.669C40.9577 0 42.0023 1.04468 42.0023 2.33333V39.6667C42.0023 40.9554 40.9577 42 39.669 42H2.33559C1.04691 42 0.0022583 40.9554 0.0022583 39.6667V2.33333C0.0022583 1.04468 1.04691 0 2.33559 0ZM4.66893 4.66667V37.3333H37.3356V4.66667H4.66893ZM10.5023 14C8.56926 14 7.00226 12.433 7.00226 10.5C7.00226 8.567 8.56926 7 10.5023 7C12.4352 7 14.0023 8.567 14.0023 10.5C14.0023 12.433 12.4352 14 10.5023 14ZM8.16893 16.3333H12.8356V33.8333H8.16893V16.3333ZM21.0023 17.3355C22.3659 16.0191 23.9551 15.1667 25.669 15.1667C30.5013 15.1667 33.8356 19.0841 33.8356 23.9167V33.8333H29.169V23.9167C29.169 21.6615 27.3408 19.8333 25.0856 19.8333C22.8305 19.8333 21.0023 21.6615 21.0023 23.9167V33.8333H16.3356V16.3333H21.0023V17.3355Z" fill="#A78BFA"/>
</svg>
