<svg width="607" height="80" viewBox="0 0 607 80" fill="none" xmlns="http://www.w3.org/2000/svg">
<g filter="url(#filter0_d_89_125)">
<rect x="7" y="3" width="72" height="72" rx="36" fill="#8B5CF6" shape-rendering="crispEdges"/>
<path d="M43 49.5026L50.7 47.3674L51.7383 35.8448H38.0433L37.7033 32.013H52.08L52.4583 28.2543H33.5417L34.6017 39.6069H47.635L47.2 44.4791L43 45.613L38.8 44.4791L38.5367 41.3443H34.7533L35.3017 47.3691L43 49.5026ZM28 22H58L55.295 52.6L43 56L30.705 52.6L28 22Z" fill="#D4CAF9"/>
</g>
<g filter="url(#filter1_d_89_125)">
<rect x="59" y="3" width="72" height="72" rx="36" fill="#8B5CF6" shape-rendering="crispEdges"/>
<path d="M80 22L82.7304 52.5909L94.9818 56L107.267 52.5784L110 22H80ZM104.328 29.0085L103.419 39.1993L103.422 39.2543L103.418 39.3809V39.3798L102.772 46.5054L102.701 47.1384L95 49.2641L94.994 49.2695L87.3064 47.1319L86.7858 41.2407H90.5557L90.8231 44.2363L95.0011 45.3664L95 45.3685V45.368L99.1934 44.222L99.6366 39.3438H90.8704L90.7952 38.5191L90.6238 36.5872L90.5339 35.5498H99.9698L100.313 31.7559H85.9413L85.8661 30.9318L85.6951 28.9993L85.6049 27.9619H104.418L104.328 29.0085Z" fill="#D4CAF9"/>
</g>
<g filter="url(#filter2_d_89_125)">
<rect x="111" y="3" width="72" height="72" rx="36" fill="#8B5CF6" shape-rendering="crispEdges"/>
<g clip-path="url(#clip0_89_125)">
<path d="M160.909 22H133.091C131.383 22 130 23.3832 130 25.0909V52.9091C130 54.6168 131.383 56 133.091 56H160.909C162.617 56 164 54.6168 164 52.9091V25.0909C164 23.3832 162.617 22 160.909 22ZM147 47.3145C147 50.0608 145.315 51.6001 142.518 51.6001C140.324 51.6001 138.762 50.5818 138.212 48.8547C137.96 48.064 138.667 47.3733 139.497 47.3733C140.323 47.3733 140.908 48.1975 141.574 48.6848C141.812 48.8592 142.115 48.9543 142.467 48.9543C143.385 48.9543 143.878 48.3763 143.878 47.2883V40.5578C143.878 39.6958 144.577 38.9969 145.439 38.9969C146.301 38.9969 147 39.6958 147 40.5578V47.3145ZM155.471 51.6001C153.099 51.6001 151.4 50.7473 150.706 49.291C150.335 48.5146 151.067 47.7735 151.928 47.7735C152.724 47.7735 153.405 48.4957 154.096 48.8916C154.482 49.1127 154.996 49.2355 155.597 49.2355C156.763 49.2355 157.563 48.6745 157.563 47.8663C157.563 47.1863 157.027 46.82 155.624 46.5403L154.009 46.2173C151.763 45.7923 150.607 44.5683 150.607 42.638C150.607 40.2395 152.53 38.6662 155.488 38.6662C157.69 38.6662 159.373 39.5801 160.062 41.0289C160.419 41.7789 159.719 42.4927 158.888 42.4927C158.116 42.4927 157.471 41.7927 156.824 41.3719C156.481 41.1493 156.033 41.0215 155.528 41.0215C154.432 41.0215 153.71 41.5407 153.71 42.3567C153.71 43.029 154.254 43.42 155.546 43.675L157.126 43.981C159.551 44.4493 160.639 45.545 160.639 47.4923C160.64 50.0531 158.685 51.6001 155.471 51.6001Z" fill="#D4CAF9"/>
</g>
</g>
<g filter="url(#filter3_d_89_125)">
<rect x="163" y="3" width="72" height="72" rx="36" fill="#8B5CF6" shape-rendering="crispEdges"/>
<path d="M214 37.3035L202 49.1517L214 61H200.288L188.283 49.1517L200.288 37.3035H214ZM200.288 17L178 38.9979L184.858 45.7671L214 17H200.288Z" fill="#D4CAF9"/>
</g>
<g filter="url(#filter4_d_89_125)">
<rect x="215" y="3" width="72" height="72" rx="36" fill="#8B5CF6" shape-rendering="crispEdges"/>
<path d="M234.81 23.2204L234.9 23.3104V49.2004L229.81 44.1104C228 42.3004 227.49 39.5204 228.54 37.1904L234.81 23.2204ZM262.2 21.9004H236.31L236.22 21.8104L250.19 15.5404C252.52 14.4904 255.3 15.0004 257.11 16.8104L262.2 21.9004ZM264.49 52.9004H238.61L238.07 52.3604C237.32 51.6004 236.9 50.6004 236.9 49.5304V25.3104L264.49 52.9004ZM240.61 54.9004H265.9V60.9004C265.9 61.4504 265.45 61.9004 264.9 61.9004H248C247.73 61.9004 247.48 61.7904 247.29 61.6104L242.59 56.9104L242.61 56.8904L240.61 54.9004ZM274.9 35.0004V51.9004C274.9 52.4504 274.45 52.9004 273.9 52.9004H267.32L238.31 23.9004H262.53C263.6 23.9004 264.6 24.3204 265.36 25.0704L269.89 29.6104L269.91 29.5904L274.61 34.2904C274.79 34.4804 274.9 34.7304 274.9 35.0004Z" fill="#D4CAF9"/>
</g>
<g filter="url(#filter5_d_89_125)">
<rect x="267" y="3" width="72" height="72" rx="36" fill="#8B5CF6" shape-rendering="crispEdges"/>
<path d="M286.636 19C284.627 19 283 20.6273 283 22.6364V55.3636C283 57.3727 284.627 59 286.636 59H319.364C321.373 59 323 57.3727 323 55.3636V22.6364C323 20.6273 321.373 19 319.364 19H286.636ZM311.473 28.5419C312.604 28.5419 313.376 29.2628 313.376 30.2464C313.376 31.2301 312.604 31.951 311.473 31.951C310.355 31.951 309.573 31.2301 309.573 30.2464C309.573 29.2628 310.355 28.5419 311.473 28.5419ZM297.169 29.8239H300.773L307.148 47.7607H303.707L302.19 43.1761H295.592L294.048 47.7607H290.805L297.169 29.8239ZM298.795 33.2401L296.338 40.6371H301.445L299.009 33.2401H298.795ZM309.946 34.1634H313.014V47.7607H309.946V34.1634Z" fill="#D4CAF9"/>
</g>
<g filter="url(#filter6_d_89_125)">
<rect x="319" y="3" width="72" height="72" rx="36" fill="#8B5CF6" shape-rendering="crispEdges"/>
<path d="M338.636 19C336.627 19 335 20.6273 335 22.6364V55.3636C335 57.3727 336.627 59 338.636 59H371.364C373.373 59 375 57.3727 375 55.3636V22.6364C375 20.6273 373.373 19 371.364 19H338.636ZM342.273 29.8949H349.506C353.086 29.8949 355.536 32.3439 355.536 35.9602C355.536 39.5148 352.997 41.951 349.368 41.951H345.479V47.8317H342.273V29.8949ZM345.479 32.5795V39.2912H348.651C350.938 39.2912 352.28 38.0984 352.28 35.9602C352.28 33.762 350.972 32.5795 348.661 32.5795H345.479ZM362.649 33.9574C365.88 33.9574 367.908 35.3874 368.132 37.8601H365.238C365.014 36.9037 364.105 36.294 362.663 36.294C361.26 36.294 360.202 36.967 360.202 37.9489C360.202 38.7198 360.849 39.1916 362.216 39.5007L364.613 40.0476C367.211 40.6312 368.416 41.7514 368.416 43.7514C368.416 46.3641 366.017 48.1051 362.624 48.1051C359.232 48.1051 357.094 46.6361 356.857 44.1634H359.904C360.202 45.1706 361.157 45.7685 362.699 45.7685C364.252 45.7685 365.334 45.0854 365.334 44.0781C365.334 43.3072 364.752 42.8207 363.459 42.5334L361.048 41.9759C358.437 41.3795 357.209 40.1738 357.209 38.1229C357.209 35.6611 359.442 33.9574 362.649 33.9574Z" fill="#D4CAF9"/>
</g>
<g filter="url(#filter7_d_89_125)">
<rect x="371" y="3" width="72" height="72" rx="36" fill="#8B5CF6" shape-rendering="crispEdges"/>
<path d="M391.455 20C389.546 20 388 21.5459 388 23.4545V54.5455C388 56.4541 389.546 58 391.455 58H422.545C424.454 58 426 56.4541 426 54.5455V23.4545C426 21.5459 424.454 20 422.545 20H391.455ZM399.079 30.5829H402.503L408.559 47.6229H405.29L403.849 43.2642H397.578L396.113 47.6229H393.033L399.079 30.5829ZM400.624 33.8317L398.286 40.8555H403.141L400.826 33.8317H400.624ZM415.903 34.4457C419.587 34.4457 421.797 36.8888 421.797 40.9634V41.908H412.776V42.0598C412.846 44.2086 414.085 45.5549 416.011 45.5549C417.462 45.5549 418.467 45.024 418.892 44.0671H421.665C421.112 46.4179 418.972 47.8826 415.926 47.8826C412.125 47.8826 409.834 45.3655 409.834 41.2097C409.834 37.0539 412.162 34.4457 415.903 34.4457ZM415.893 36.7667C414.145 36.7667 412.917 38.0196 412.786 39.9075H418.868C418.808 37.9954 417.649 36.7667 415.893 36.7667Z" fill="#D4CAF9"/>
</g>
<defs>
<filter id="filter0_d_89_125" x="0" y="0" width="80" height="80" filterUnits="userSpaceOnUse" color-interpolation-filters="sRGB">
<feFlood flood-opacity="0" result="BackgroundImageFix"/>
<feColorMatrix in="SourceAlpha" type="matrix" values="0 0 0 0 0 0 0 0 0 0 0 0 0 0 0 0 0 0 127 0" result="hardAlpha"/>
<feOffset dx="-3" dy="1"/>
<feGaussianBlur stdDeviation="2"/>
<feComposite in2="hardAlpha" operator="out"/>
<feColorMatrix type="matrix" values="0 0 0 0 0 0 0 0 0 0 0 0 0 0 0 0 0 0 0.07 0"/>
<feBlend mode="normal" in2="BackgroundImageFix" result="effect1_dropShadow_89_125"/>
<feBlend mode="normal" in="SourceGraphic" in2="effect1_dropShadow_89_125" result="shape"/>
</filter>
<filter id="filter1_d_89_125" x="52" y="0" width="80" height="80" filterUnits="userSpaceOnUse" color-interpolation-filters="sRGB">
<feFlood flood-opacity="0" result="BackgroundImageFix"/>
<feColorMatrix in="SourceAlpha" type="matrix" values="0 0 0 0 0 0 0 0 0 0 0 0 0 0 0 0 0 0 127 0" result="hardAlpha"/>
<feOffset dx="-3" dy="1"/>
<feGaussianBlur stdDeviation="2"/>
<feComposite in2="hardAlpha" operator="out"/>
<feColorMatrix type="matrix" values="0 0 0 0 0 0 0 0 0 0 0 0 0 0 0 0 0 0 0.07 0"/>
<feBlend mode="normal" in2="BackgroundImageFix" result="effect1_dropShadow_89_125"/>
<feBlend mode="normal" in="SourceGraphic" in2="effect1_dropShadow_89_125" result="shape"/>
</filter>
<filter id="filter2_d_89_125" x="104" y="0" width="80" height="80" filterUnits="userSpaceOnUse" color-interpolation-filters="sRGB">
<feFlood flood-opacity="0" result="BackgroundImageFix"/>
<feColorMatrix in="SourceAlpha" type="matrix" values="0 0 0 0 0 0 0 0 0 0 0 0 0 0 0 0 0 0 127 0" result="hardAlpha"/>
<feOffset dx="-3" dy="1"/>
<feGaussianBlur stdDeviation="2"/>
<feComposite in2="hardAlpha" operator="out"/>
<feColorMatrix type="matrix" values="0 0 0 0 0 0 0 0 0 0 0 0 0 0 0 0 0 0 0.07 0"/>
<feBlend mode="normal" in2="BackgroundImageFix" result="effect1_dropShadow_89_125"/>
<feBlend mode="normal" in="SourceGraphic" in2="effect1_dropShadow_89_125" result="shape"/>
</filter>
<filter id="filter3_d_89_125" x="156" y="0" width="80" height="80" filterUnits="userSpaceOnUse" color-interpolation-filters="sRGB">
<feFlood flood-opacity="0" result="BackgroundImageFix"/>
<feColorMatrix in="SourceAlpha" type="matrix" values="0 0 0 0 0 0 0 0 0 0 0 0 0 0 0 0 0 0 127 0" result="hardAlpha"/>
<feOffset dx="-3" dy="1"/>
<feGaussianBlur stdDeviation="2"/>
<feComposite in2="hardAlpha" operator="out"/>
<feColorMatrix type="matrix" values="0 0 0 0 0 0 0 0 0 0 0 0 0 0 0 0 0 0 0.07 0"/>
<feBlend mode="normal" in2="BackgroundImageFix" result="effect1_dropShadow_89_125"/>
<feBlend mode="normal" in="SourceGraphic" in2="effect1_dropShadow_89_125" result="shape"/>
</filter>
<filter id="filter4_d_89_125" x="208" y="0" width="80" height="80" filterUnits="userSpaceOnUse" color-interpolation-filters="sRGB">
<feFlood flood-opacity="0" result="BackgroundImageFix"/>
<feColorMatrix in="SourceAlpha" type="matrix" values="0 0 0 0 0 0 0 0 0 0 0 0 0 0 0 0 0 0 127 0" result="hardAlpha"/>
<feOffset dx="-3" dy="1"/>
<feGaussianBlur stdDeviation="2"/>
<feComposite in2="hardAlpha" operator="out"/>
<feColorMatrix type="matrix" values="0 0 0 0 0 0 0 0 0 0 0 0 0 0 0 0 0 0 0.07 0"/>
<feBlend mode="normal" in2="BackgroundImageFix" result="effect1_dropShadow_89_125"/>
<feBlend mode="normal" in="SourceGraphic" in2="effect1_dropShadow_89_125" result="shape"/>
</filter>
<filter id="filter5_d_89_125" x="260" y="0" width="80" height="80" filterUnits="userSpaceOnUse" color-interpolation-filters="sRGB">
<feFlood flood-opacity="0" result="BackgroundImageFix"/>
<feColorMatrix in="SourceAlpha" type="matrix" values="0 0 0 0 0 0 0 0 0 0 0 0 0 0 0 0 0 0 127 0" result="hardAlpha"/>
<feOffset dx="-3" dy="1"/>
<feGaussianBlur stdDeviation="2"/>
<feComposite in2="hardAlpha" operator="out"/>
<feColorMatrix type="matrix" values="0 0 0 0 0 0 0 0 0 0 0 0 0 0 0 0 0 0 0.07 0"/>
<feBlend mode="normal" in2="BackgroundImageFix" result="effect1_dropShadow_89_125"/>
<feBlend mode="normal" in="SourceGraphic" in2="effect1_dropShadow_89_125" result="shape"/>
</filter>
<filter id="filter6_d_89_125" x="312" y="0" width="80" height="80" filterUnits="userSpaceOnUse" color-interpolation-filters="sRGB">
<feFlood flood-opacity="0" result="BackgroundImageFix"/>
<feColorMatrix in="SourceAlpha" type="matrix" values="0 0 0 0 0 0 0 0 0 0 0 0 0 0 0 0 0 0 127 0" result="hardAlpha"/>
<feOffset dx="-3" dy="1"/>
<feGaussianBlur stdDeviation="2"/>
<feComposite in2="hardAlpha" operator="out"/>
<feColorMatrix type="matrix" values="0 0 0 0 0 0 0 0 0 0 0 0 0 0 0 0 0 0 0.07 0"/>
<feBlend mode="normal" in2="BackgroundImageFix" result="effect1_dropShadow_89_125"/>
<feBlend mode="normal" in="SourceGraphic" in2="effect1_dropShadow_89_125" result="shape"/>
</filter>
<filter id="filter7_d_89_125" x="364" y="0" width="80" height="80" filterUnits="userSpaceOnUse" color-interpolation-filters="sRGB">
<feFlood flood-opacity="0" result="BackgroundImageFix"/>
<feColorMatrix in="SourceAlpha" type="matrix" values="0 0 0 0 0 0 0 0 0 0 0 0 0 0 0 0 0 0 127 0" result="hardAlpha"/>
<feOffset dx="-3" dy="1"/>
<feGaussianBlur stdDeviation="2"/>
<feComposite in2="hardAlpha" operator="out"/>
<feColorMatrix type="matrix" values="0 0 0 0 0 0 0 0 0 0 0 0 0 0 0 0 0 0 0.07 0"/>
<feBlend mode="normal" in2="BackgroundImageFix" result="effect1_dropShadow_89_125"/>
<feBlend mode="normal" in="SourceGraphic" in2="effect1_dropShadow_89_125" result="shape"/>
</filter>
<clipPath id="clip0_89_125">
<rect width="48" height="48" fill="white" transform="translate(123 15)"/>
</clipPath>
</defs>
</svg>
