<svg width="54" height="84" viewBox="0 0 54 84" fill="none" xmlns="http://www.w3.org/2000/svg">
<path fill-rule="evenodd" clip-rule="evenodd" d="M11.25 7.875H42.75C43.4462 7.875 44.1139 8.15156 44.6062 8.64384C45.0984 9.13613 45.375 9.80381 45.375 10.5V73.5C45.375 74.1962 45.0984 74.8639 44.6062 75.3562C44.1139 75.8484 43.4462 76.125 42.75 76.125H11.25C10.5538 76.125 9.88613 75.8484 9.39385 75.3562C8.90156 74.8639 8.625 74.1962 8.625 73.5V10.5C8.625 9.80381 8.90156 9.13613 9.39385 8.64384C9.88613 8.15156 10.5538 7.875 11.25 7.875ZM0.75 10.5C0.75 7.71523 1.85625 5.04451 3.82538 3.07538C5.79451 1.10625 8.46523 0 11.25 0L42.75 0C45.5348 0 48.2055 1.10625 50.1746 3.07538C52.1437 5.04451 53.25 7.71523 53.25 10.5V73.5C53.25 76.2848 52.1437 78.9555 50.1746 80.9246C48.2055 82.8938 45.5348 84 42.75 84H11.25C8.46523 84 5.79451 82.8938 3.82538 80.9246C1.85625 78.9555 0.75 76.2848 0.75 73.5V10.5ZM27 68.25C28.3924 68.25 29.7277 67.6969 30.7123 66.7123C31.6969 65.7277 32.25 64.3924 32.25 63C32.25 61.6076 31.6969 60.2723 30.7123 59.2877C29.7277 58.3031 28.3924 57.75 27 57.75C25.6076 57.75 24.2723 58.3031 23.2877 59.2877C22.3031 60.2723 21.75 61.6076 21.75 63C21.75 64.3924 22.3031 65.7277 23.2877 66.7123C24.2723 67.6969 25.6076 68.25 27 68.25Z" fill="white"/>
</svg>
