<svg width="80" height="80" viewBox="0 0 80 80" fill="none" xmlns="http://www.w3.org/2000/svg">
<g filter="url(#filter0_d_30_1005)">
<rect x="7" y="3" width="72" height="72" rx="36" fill="#8B5CF6" shape-rendering="crispEdges"/>
<path d="M26.6364 19C24.6273 19 23 20.6273 23 22.6364V55.3636C23 57.3727 24.6273 59 26.6364 59H59.3636C61.3727 59 63 57.3727 63 55.3636V22.6364C63 20.6273 61.3727 19 59.3636 19H26.6364ZM30.2727 29.8949H37.5064C41.0864 29.8949 43.5362 32.3439 43.5362 35.9602C43.5362 39.5148 40.997 41.951 37.3679 41.951H33.4794V47.8317H30.2727V29.8949ZM33.4794 32.5795V39.2912H36.6506C38.9378 39.2912 40.2798 38.0984 40.2798 35.9602C40.2798 33.762 38.9721 32.5795 36.6612 32.5795H33.4794ZM50.6491 33.9574C53.8801 33.9574 55.9085 35.3874 56.1321 37.8601H53.2379C53.0143 36.9037 52.1052 36.294 50.6634 36.294C49.2597 36.294 48.2024 36.967 48.2024 37.9489C48.2024 38.7198 48.8486 39.1916 50.2159 39.5007L52.6129 40.0476C55.2111 40.6312 56.4162 41.7514 56.4162 43.7514C56.4162 46.3641 54.017 48.1051 50.6243 48.1051C47.2316 48.1051 45.0936 46.6361 44.8572 44.1634H47.9041C48.2023 45.1706 49.157 45.7685 50.6989 45.7685C52.2516 45.7685 53.3338 45.0854 53.3338 44.0781C53.3338 43.3072 52.7515 42.8207 51.4588 42.5334L49.0476 41.9759C46.4367 41.3795 45.2088 40.1738 45.2088 38.1229C45.2088 35.6611 47.4419 33.9574 50.6491 33.9574Z" fill="#D4CAF9"/>
</g>
<defs>
<filter id="filter0_d_30_1005" x="0" y="0" width="80" height="80" filterUnits="userSpaceOnUse" color-interpolation-filters="sRGB">
<feFlood flood-opacity="0" result="BackgroundImageFix"/>
<feColorMatrix in="SourceAlpha" type="matrix" values="0 0 0 0 0 0 0 0 0 0 0 0 0 0 0 0 0 0 127 0" result="hardAlpha"/>
<feOffset dx="-3" dy="1"/>
<feGaussianBlur stdDeviation="2"/>
<feComposite in2="hardAlpha" operator="out"/>
<feColorMatrix type="matrix" values="0 0 0 0 0 0 0 0 0 0 0 0 0 0 0 0 0 0 0.07 0"/>
<feBlend mode="normal" in2="BackgroundImageFix" result="effect1_dropShadow_30_1005"/>
<feBlend mode="normal" in="SourceGraphic" in2="effect1_dropShadow_30_1005" result="shape"/>
</filter>
</defs>
</svg>
