<svg width="35" height="34" viewBox="0 0 35 34" fill="none" xmlns="http://www.w3.org/2000/svg">
<g clip-path="url(#clip0_24_1347)">
<path fill-rule="evenodd" clip-rule="evenodd" d="M8.34513 11.5712C7.50035 11.5712 6.65447 11.7161 6.12593 12.152C5.76436 12.4506 5.52884 12.9435 5.52884 13.7153V19.3516C5.52884 20.1332 5.07217 21.0291 4.12125 21.6867C5.07217 22.3454 5.52884 23.2401 5.52884 24.0218V29.6592C5.52884 30.4309 5.76436 30.9239 6.12593 31.2225C6.65447 31.6583 7.50035 31.8032 8.34513 31.8032V33.9989C7.06248 33.9989 5.7146 33.7266 4.71834 32.9033C3.87025 32.2028 3.31739 31.1632 3.31739 29.6592V24.0218C3.31739 23.8593 3.11393 23.6145 2.68823 23.374C2.20171 23.0996 1.48188 22.9075 0.501099 22.9075V20.4637C1.48188 20.4637 2.20171 20.2726 2.68823 19.9971C3.11393 19.7567 3.31739 19.5129 3.31739 19.3494V13.7131C3.31739 12.2079 3.87025 11.1694 4.71834 10.469C5.7146 9.64559 7.06359 9.37333 8.34513 9.37333V11.569V11.5712Z" fill="#6366F1"/>
<path fill-rule="evenodd" clip-rule="evenodd" d="M22.1037 34C23.3863 34 24.7342 33.7277 25.7316 32.9044C26.5797 32.2039 27.1325 31.1643 27.1325 29.6603V24.0229C27.1325 23.8604 27.336 23.6156 27.7617 23.3751C28.2482 23.1007 28.9669 22.9086 29.9488 22.9086V20.4648C28.9669 20.4648 28.2482 20.2737 27.7617 19.9982C27.336 19.7578 27.1325 19.514 27.1325 19.3505V13.7142C27.1325 12.209 26.5797 11.1705 25.7316 10.4701C24.7353 9.64669 23.3863 9.37443 22.1037 9.37443V11.5701C22.9485 11.5701 23.7944 11.715 24.3229 12.1509C24.6845 12.4495 24.9211 12.9424 24.9211 13.7142V19.3505C24.9211 20.1321 25.3778 21.028 26.3276 21.6856C25.3767 22.3443 24.9211 23.239 24.9211 24.0207V29.6581C24.9211 30.4298 24.6856 30.9228 24.3229 31.2214C23.7944 31.6572 22.9485 31.8021 22.1037 31.8021V33.9978V34Z" fill="#6366F1"/>
<path fill-rule="evenodd" clip-rule="evenodd" d="M25.8576 14.8208H30.3148C31.467 14.8208 32.513 15.2885 33.2715 16.0405C34.029 16.7936 34.5 17.8322 34.5 18.9761V24.7913C34.5 25.9353 34.0301 26.9738 33.2715 27.727C32.513 28.479 31.467 28.9467 30.3148 28.9467H25.8576V26.7894H30.3148C30.8666 26.7894 31.3697 26.5643 31.7346 26.2021C32.0995 25.8398 32.3261 25.3403 32.3261 24.7924V18.9772C32.3261 18.4294 32.0995 17.9299 31.7346 17.5676C31.3697 17.2053 30.8666 16.9802 30.3148 16.9802H25.8576V14.823V14.8208Z" fill="#6366F1"/>
<path fill-rule="evenodd" clip-rule="evenodd" d="M15.068 13.0511C11.0066 13.0511 7.71378 13.5418 7.71378 14.1467C7.71378 14.7516 10.9071 15.227 14.8844 15.2413C14.8844 15.2413 16.3661 15.2303 16.8603 15.2083C17.4077 15.1875 17.9318 15.1578 18.4238 15.1205C18.4238 15.1205 19.8447 14.9975 20.3998 14.8998C21.6537 14.7033 22.4233 14.4377 22.4233 14.1456C22.4233 13.5407 19.1304 13.05 15.068 13.05V13.0511Z" fill="#EBB38E"/>
<path fill-rule="evenodd" clip-rule="evenodd" d="M15.1487 0C10.4493 2.40426 17.2816 7.37637 14.2785 10.2505C14.2785 10.2505 18.196 10.2066 18.3055 7.1579C18.4139 4.1092 15.3676 3.80071 14.8955 2.43061C14.4233 1.06161 15.1498 0.00109784 15.1498 0.00109784L15.1487 0Z" fill="#E1CDC2"/>
</g>
<defs>
<clipPath id="clip0_24_1347">
<rect width="34" height="34" fill="white" transform="translate(0.5)"/>
</clipPath>
</defs>
</svg>
