<svg width="70" height="56" viewBox="0 0 70 56" fill="none" xmlns="http://www.w3.org/2000/svg">
<path d="M7.00001 56C5.07501 56 3.42651 55.314 2.05451 53.942C0.682505 52.57 -0.00232739 50.9227 5.94228e-06 49V7.00001C5.94228e-06 5.07501 0.686006 3.42651 2.05801 2.05451C3.43001 0.682505 5.07734 -0.00232739 7.00001 5.94228e-06H63C64.925 5.94228e-06 66.5735 0.686005 67.9455 2.05801C69.3175 3.43001 70.0023 5.07734 70 7.00001V49C70 50.925 69.314 52.5735 67.942 53.9455C66.57 55.3175 64.9227 56.0023 63 56H7.00001ZM7.00001 49H43.75V36.75H7.00001V49ZM50.75 49H63V17.5H50.75V49ZM7.00001 29.75H43.75V17.5H7.00001V29.75Z" fill="white"/>
</svg>
